<?xml version="1.0" encoding="UTF-8" standalone="no"?>
<svg
   width="77.474777mm"
   height="75.146332mm"
   viewBox="0 0 77.474777 75.146332"
   version="1.1"
   id="svg8"
   inkscape:version="1.1 (c68e22c387, 2021-05-23)"
   sodipodi:docname="logo.svg"
   xmlns:inkscape="http://www.inkscape.org/namespaces/inkscape"
   xmlns:sodipodi="http://sodipodi.sourceforge.net/DTD/sodipodi-0.dtd"
   xmlns="http://www.w3.org/2000/svg"
   xmlns:svg="http://www.w3.org/2000/svg"
   xmlns:rdf="http://www.w3.org/1999/02/22-rdf-syntax-ns#"
   xmlns:cc="http://creativecommons.org/ns#"
   xmlns:dc="http://purl.org/dc/elements/1.1/">
  <defs
     id="defs2" />
  <sodipodi:namedview
     id="base"
     pagecolor="#ffffff"
     bordercolor="#666666"
     borderopacity="1.0"
     inkscape:pageopacity="0.0"
     inkscape:pageshadow="2"
     inkscape:zoom="0.35"
     inkscape:cx="-490"
     inkscape:cy="50"
     inkscape:document-units="mm"
     inkscape:current-layer="layer1"
     inkscape:document-rotation="0"
     showgrid="false"
     fit-margin-top="0"
     fit-margin-left="0"
     fit-margin-right="0"
     fit-margin-bottom="0"
     inkscape:window-width="1920"
     inkscape:window-height="1013"
     inkscape:window-x="-9"
     inkscape:window-y="-9"
     inkscape:window-maximized="1"
     inkscape:pagecheckerboard="0" />
  <metadata
     id="metadata5">
    <rdf:RDF>
      <cc:Work
         rdf:about="">
        <dc:format>image/svg+xml</dc:format>
        <dc:type
           rdf:resource="http://purl.org/dc/dcmitype/StillImage" />
      </cc:Work>
    </rdf:RDF>
  </metadata>
  <g
     inkscape:label="Calque 1"
     inkscape:groupmode="layer"
     id="layer1"
     transform="translate(-85.995036,-134.78632)">
    <path
       style="fill:#f0f0f0;stroke-width:0.0705556"
       d="m 86.003514,209.48701 c 0.0054,-0.37735 0.0154,-0.40987 0.06901,-0.22541 0.07622,0.26224 0.329579,0.51144 0.603322,0.5934 0.167235,0.0501 0.125113,0.0619 -0.237723,0.0669 l -0.440972,0.006 z m 76.405306,0.37492 c 0.55982,-0.11296 0.85653,-0.3991 0.99235,-0.957 0.0349,-0.14353 0.0539,-0.0129 0.0588,0.4057 l 0.007,0.61736 -0.65264,-0.008 c -0.45792,-0.006 -0.57896,-0.023 -0.40569,-0.0579 z m -76.404447,-74.45825 -0.0072,-0.61736 0.652639,0.008 c 0.457922,0.006 0.578962,0.023 0.405694,0.0579 -0.559825,0.11296 -0.85654,0.3991 -0.992359,0.957 -0.03494,0.14353 -0.05385,0.0129 -0.05875,-0.4057 z m 77.392217,0.43816 c 0,-0.25423 -0.27592,-0.69581 -0.51222,-0.81974 -0.12573,-0.0659 -0.33973,-0.14232 -0.47555,-0.16973 -0.17327,-0.035 -0.0522,-0.0523 0.40569,-0.0579 l 0.65264,-0.008 v 0.59972 c 0,0.32985 -0.0159,0.59973 -0.0353,0.59973 -0.0194,0 -0.0353,-0.0648 -0.0353,-0.14392 z"
       id="path863" />
    <path
       style="fill:#9a9a9a;stroke-width:0.0705556"
       d="m 86.896734,209.88126 c 0.04851,-0.0196 0.127882,-0.0196 0.176389,0 0.04851,0.0196 0.0088,0.0356 -0.08819,0.0356 -0.09701,0 -0.136702,-0.016 -0.08819,-0.0356 z m 74.930826,-0.003 c 0.0878,-0.0169 0.21476,-0.0162 0.28222,10e-4 0.0674,0.0177 -0.004,0.0315 -0.15958,0.0307 -0.15522,-7.8e-4 -0.21041,-0.0152 -0.12264,-0.0321 z m -75.519965,-0.26054 c -0.131938,-0.13194 -0.23977,-0.29862 -0.239625,-0.37041 1.9e-4,-0.0938 0.03969,-0.0659 0.140467,0.0994 0.07711,0.12647 0.24368,0.29304 0.370152,0.37015 0.165286,0.10078 0.193245,0.14028 0.09942,0.14047 -0.07179,0 -0.238478,-0.10769 -0.370417,-0.23963 z m 76.203925,0.12776 c 0.50947,-0.18655 0.7651,-0.52599 0.88279,-1.17221 l 0.0681,-0.37371 -0.0341,0.41091 c -0.0461,0.55495 -0.24651,0.92768 -0.59424,1.10508 -0.15315,0.0781 -0.35117,0.13982 -0.44003,0.13709 -0.12,-0.004 -0.0898,-0.0312 0.11754,-0.10716 z m -76.503229,-0.80509 c 0,-0.097 0.01601,-0.1367 0.03559,-0.0882 0.01957,0.0485 0.01957,0.12789 0,0.17639 -0.01957,0.0485 -0.03559,0.009 -0.03559,-0.0882 z m 0.02776,-72.8362 c 0.04607,-0.55495 0.246503,-0.92767 0.594239,-1.10508 0.153154,-0.0781 0.351164,-0.13982 0.440022,-0.13709 0.12001,0.004 0.08978,0.0312 -0.117528,0.10717 -0.509475,0.18654 -0.765106,0.52598 -0.882791,1.1722 l -0.06806,0.37372 z m 77.360149,0.18161 c -0.001,-0.58484 -0.3642,-1.13441 -0.86695,-1.31248 -0.21151,-0.0749 -0.25039,-0.10673 -0.13527,-0.1107 0.29024,-0.01 0.70924,0.26042 0.85932,0.5546 0.13737,0.26926 0.27794,1.06261 0.18829,1.06261 -0.0247,0 -0.0452,-0.0873 -0.0454,-0.19403 z m -76.004754,-1.47883 c 0.08777,-0.0169 0.214765,-0.0162 0.282222,0.001 0.06746,0.0177 -0.0044,0.0315 -0.159573,0.0307 -0.155222,-7.8e-4 -0.210414,-0.0152 -0.122649,-0.0321 z m 74.436114,0 c 0.0878,-0.0169 0.21476,-0.0162 0.28222,0.001 0.0674,0.0177 -0.004,0.0315 -0.15958,0.0307 -0.15522,-7.8e-4 -0.21041,-0.0152 -0.12264,-0.0321 z"
       id="path861" />
    <path
       style="fill:#7dc22b;fill-opacity:1;stroke-width:0.0705556"
       d="m 146.626,209.7363 c 0.048,-0.108 0.13817,-0.29162 0.20031,-0.40804 0.0621,-0.11641 0.13705,-0.29104 0.16649,-0.38805 0.0294,-0.097 0.2233,-0.53334 0.43079,-0.9696 0.2075,-0.43627 0.39693,-0.87153 0.42095,-0.96725 0.024,-0.0957 0.0879,-0.21071 0.14191,-0.25555 0.058,-0.0481 0.0818,-0.14693 0.0581,-0.24121 -0.0259,-0.10337 0.0725,-0.41825 0.27917,-0.89287 0.66083,-1.51765 1.89961,-5.3306 2.2407,-6.89687 1.01668,-4.66852 1.01407,-4.64497 1.01407,-9.14415 0,-4.185 -0.0117,-4.34678 -0.43189,-5.96195 -0.80396,-3.09051 -1.5459,-5.06017 -2.87033,-7.62 -1.68152,-3.24997 -3.79298,-5.97858 -6.12444,-7.9145 -0.72012,-0.59795 -3.13097,-2.06334 -4.39394,-2.67079 -3.78898,-1.82235 -6.36908,-2.61377 -10.13301,-3.1082 -0.32985,-0.0433 -1.64748,-0.0817 -2.92806,-0.0853 -2.39302,-0.007 -2.91211,0.0334 -4.51127,0.34824 -0.72536,0.14282 -1.42845,0.10489 -1.57063,-0.0847 -0.16215,-0.21623 -0.0829,-0.73547 0.16154,-1.05883 0.45062,-0.59601 0.91502,-0.92942 1.56575,-1.12409 0.42217,-0.12629 2.05579,-0.24228 3.47267,-0.24655 3.0305,-0.009 11.95878,-0.62629 13.75833,-0.95101 0.32985,-0.0595 1.12359,-0.18669 1.76389,-0.2826 2.47388,-0.37058 2.66614,-0.42713 4.64221,-1.36534 0.97759,-0.46415 2.00783,-0.98856 2.28942,-1.16536 0.73345,-0.4605 2.90132,-2.263 3.50553,-2.91472 0.99711,-1.0755 1.75287,-2.15153 3.41178,-4.85762 0.57343,-0.9354 1.31147,-1.9103 2.04171,-2.69697 0.22422,-0.24155 0.40768,-0.46785 0.40768,-0.50289 0,-0.10786 -0.14347,-0.18927 -1.12889,-0.64058 -1.8769,-0.85959 -3.35909,-1.3049 -5.75027,-1.72759 -3.50264,-0.61917 -3.45105,-0.61316 -5.60917,-0.65361 -4.1981,-0.0787 -8.45771,0.34602 -11.1737,1.11407 -0.95809,0.27093 -3.57211,1.40881 -4.27797,1.86219 -0.29104,0.18694 -0.79904,0.4981 -1.12889,0.69146 -0.75922,0.44507 -1.39448,0.95099 -2.31795,1.84599 -0.99013,0.95961 -2.18016,2.71418 -2.93087,4.32125 -1.19573,2.55973 -1.66781,3.71249 -2.26205,5.52363 -0.71659,2.18409 -0.99044,2.78132 -1.65179,3.60245 -0.61654,0.76549 -1.00795,1.10896 -1.64999,1.4479 l -0.51151,0.27004 -1.0703,0.003 c -0.97625,0.003 -1.08785,-0.01 -1.27,-0.14361 -0.23954,-0.17618 -0.42102,-0.67161 -0.52451,-1.43187 -0.13471,-0.98953 -0.27324,-1.4417 -0.72637,-2.3708 -0.66094,-1.35521 -1.62673,-2.62739 -2.52301,-3.32341 -0.34537,-0.2682 -0.42507,-0.37771 -0.59112,-0.81227 -0.179,-0.46843 -0.22104,-0.52075 -0.62387,-0.77632 l -0.43193,-0.27405 -0.77994,-7.1e-4 c -0.74702,-6.3e-4 -0.79411,0.008 -1.11581,0.21234 -0.23583,0.14956 -0.37604,0.30381 -0.47073,0.51788 -0.14373,0.32492 -0.1243,0.51187 0.0978,0.94146 0.17228,0.33316 1.00954,1.0494 1.56213,1.33633 0.77098,0.40035 1.31038,0.81412 1.84297,1.41372 0.89813,1.01116 1.41968,1.80511 1.57564,2.39856 0.0426,0.16202 0.0804,0.5932 0.0841,0.95819 0.008,0.81348 -0.0952,1.06059 -0.52549,1.25596 -0.37392,0.16976 -1.35073,0.18216 -2.30601,0.0293 -0.97715,-0.15639 -1.23895,-0.25136 -2.54,-0.92133 -0.24944,-0.12845 -2.87895,-0.19002 -4.18482,-0.098 -1.595719,0.11246 -2.820994,0.3794 -4.71408,1.02704 -2.362079,0.80813 -4.064603,1.56053 -5.811935,2.56854 -1.623735,0.93671 -2.134147,1.3104 -3.546448,2.59644 l -0.653671,0.59524 0.0195,-16.2885 c 0.01567,-13.09395 0.03739,-16.34077 0.110715,-16.55502 0.139356,-0.40716 0.464351,-0.73027 0.880558,-0.87543 0.352857,-0.12308 1.819252,-0.12805 37.726291,-0.12805 35.90704,0 37.37344,0.005 37.72629,0.12805 0.43322,0.1511 0.75139,0.47989 0.88227,0.91171 0.13488,0.44503 0.13488,72.54655 0,72.99158 -0.12399,0.40909 -0.44572,0.75509 -0.84582,0.90963 -0.31383,0.12121 -0.78313,0.12982 -8.14462,0.14936 l -7.81161,0.0207 z"
       id="path859" />
    <path
       style="fill:#585858;stroke-width:0.0705556"
       d="m 151.5544,192.71243 c 0,-0.097 0.016,-0.1367 0.0356,-0.0882 0.0196,0.0485 0.0196,0.12788 0,0.17639 -0.0196,0.0485 -0.0356,0.009 -0.0356,-0.0882 z m -0.006,-6.25005 c 0.003,-0.0822 0.0201,-0.0989 0.0426,-0.0426 0.0204,0.0509 0.0179,0.11179 -0.006,0.13524 -0.0234,0.0234 -0.0401,-0.0182 -0.037,-0.0926 z M 123.55131,162.1818 c 0.10725,-0.0162 0.266,-0.0158 0.35278,9.6e-4 0.0868,0.0168 -9.7e-4,0.03 -0.195,0.0295 -0.19403,-5.6e-4 -0.26503,-0.0142 -0.15778,-0.0305 z m 1.30431,8.3e-4 c 0.0873,-0.0168 0.23019,-0.0168 0.3175,0 0.0873,0.0168 0.0159,0.0306 -0.15875,0.0306 -0.17463,0 -0.24606,-0.0138 -0.15875,-0.0306 z m -14.57622,-0.16187 c 0,-0.097 0.016,-0.1367 0.0356,-0.0882 0.0196,0.0485 0.0196,0.12788 0,0.17639 -0.0196,0.0485 -0.0356,0.009 -0.0356,-0.0882 z m -8.63656,-0.19313 c 0.20373,-0.0143 0.53711,-0.0143 0.74084,0 0.20373,0.0143 0.037,0.0259 -0.37042,0.0259 -0.40746,0 -0.57415,-0.0117 -0.37042,-0.0259 z m 8.63099,-0.2008 c 0.003,-0.0822 0.0201,-0.0989 0.0426,-0.0426 0.0204,0.0509 0.0179,0.11178 -0.006,0.13523 -0.0234,0.0235 -0.0401,-0.0182 -0.0371,-0.0926 z m 8.74332,-0.54993 c 0,-0.0146 0.0556,-0.0702 0.12347,-0.12347 0.11191,-0.0878 0.1144,-0.0853 0.0266,0.0266 -0.0922,0.11753 -0.15011,0.1549 -0.15011,0.0968 z m 3.08763,-1.01104 c 0.0878,-0.0169 0.21476,-0.0162 0.28222,0.001 0.0675,0.0177 -0.004,0.0315 -0.15957,0.0307 -0.15523,-7.8e-4 -0.21042,-0.0152 -0.12265,-0.0321 z m 3.10803,-0.0688 c 0.0509,-0.0204 0.11178,-0.0179 0.13523,0.006 0.0234,0.0234 -0.0182,0.0401 -0.0926,0.0371 -0.0822,-0.003 -0.0989,-0.0201 -0.0426,-0.0426 z m 1.34055,-0.0706 c 0.0509,-0.0204 0.11179,-0.0179 0.13523,0.006 0.0234,0.0234 -0.0182,0.0401 -0.0926,0.0371 -0.0822,-0.003 -0.0989,-0.0201 -0.0426,-0.0426 z m 1.41111,-0.0705 c 0.0509,-0.0204 0.11179,-0.0179 0.13524,0.006 0.0235,0.0234 -0.0182,0.0401 -0.0926,0.0371 -0.0822,-0.003 -0.0989,-0.0201 -0.0426,-0.0426 z m 1.41111,-0.0706 c 0.0509,-0.0204 0.11179,-0.0179 0.13524,0.006 0.0234,0.0234 -0.0182,0.0401 -0.0926,0.0371 -0.0822,-0.003 -0.0989,-0.0201 -0.0426,-0.0426 z m 1.41112,-0.0705 c 0.0509,-0.0204 0.11178,-0.0179 0.13523,0.006 0.0234,0.0234 -0.0182,0.0401 -0.0926,0.0371 -0.0822,-0.003 -0.0989,-0.0201 -0.0426,-0.0426 z m 1.41111,-0.0706 c 0.0509,-0.0204 0.11178,-0.0179 0.13523,0.006 0.0234,0.0234 -0.0182,0.0401 -0.0926,0.0371 -0.0822,-0.003 -0.0989,-0.0201 -0.0426,-0.0426 z m 16.98184,-5.73736 c 0.15157,-0.15522 0.29146,-0.28222 0.31086,-0.28222 0.0194,0 -0.0887,0.127 -0.2403,0.28222 -0.15157,0.15522 -0.29146,0.28222 -0.31087,0.28222 -0.0194,0 0.0887,-0.127 0.24031,-0.28222 z m -24.51806,-6.51775 c 0,-0.0146 0.0556,-0.0702 0.12348,-0.12347 0.1119,-0.0878 0.1144,-0.0853 0.0266,0.0266 -0.0922,0.11753 -0.15011,0.1549 -0.15011,0.0968 z m 15.78681,-5.10009 c 0.0485,-0.0196 0.12788,-0.0196 0.17639,0 0.0485,0.0196 0.009,0.0356 -0.0882,0.0356 -0.097,0 -0.13671,-0.016 -0.0882,-0.0356 z"
       id="path857" />
    <path
       style="fill:#474747;stroke-width:0.0705556"
       d="m 146.82104,209.18715 c 0,-0.0388 0.0454,-0.14993 0.10083,-0.24694 0.0555,-0.097 0.10084,-0.14464 0.10084,-0.10583 0,0.0388 -0.0454,0.14993 -0.10084,0.24694 -0.0555,0.097 -0.10083,0.14464 -0.10083,0.10583 z m 0.63557,-1.37999 c -0.003,-0.0605 0.0438,-0.17161 0.10416,-0.24694 0.10796,-0.13476 0.10868,-0.1347 0.0448,0.004 -0.0357,0.0776 -0.0826,0.18874 -0.10416,0.24695 -0.0339,0.0914 -0.04,0.0908 -0.0448,-0.004 z m 0.50408,-1.30621 c -0.008,-0.0942 -0.002,-0.1713 0.0121,-0.1713 0.0524,0 0.0987,0.2829 0.0511,0.31235 -0.0269,0.0166 -0.0553,-0.0468 -0.0631,-0.14105 z m 3.61041,-14.88213 c 1.4e-4,-0.54328 0.0112,-0.7562 0.0246,-0.47316 0.0134,0.28303 0.0133,0.72753 -2.1e-4,0.98777 -0.0135,0.26024 -0.0245,0.0287 -0.0244,-0.51461 z m -0.0167,-4.90361 c 0,-0.097 0.016,-0.1367 0.0356,-0.0882 0.0196,0.0485 0.0196,0.12788 0,0.17639 -0.0196,0.0485 -0.0356,0.009 -0.0356,-0.0882 z m -0.0761,-1.17005 c 0.003,-0.0822 0.0201,-0.0989 0.0426,-0.0426 0.0204,0.0509 0.0179,0.11179 -0.006,0.13523 -0.0234,0.0235 -0.0401,-0.0182 -0.0371,-0.0926 z M 86.385207,168.30021 c 0.07024,-0.0776 0.143578,-0.14111 0.162981,-0.14111 0.0194,0 -0.02219,0.0635 -0.09243,0.14111 -0.07024,0.0776 -0.143579,0.14111 -0.162981,0.14111 -0.0194,0 0.02219,-0.0635 0.09243,-0.14111 z m 27.391623,-5.27204 c 0.12525,-0.0156 0.3475,-0.0158 0.49388,-5.6e-4 0.14639,0.0153 0.0439,0.028 -0.22773,0.0283 -0.27164,2.8e-4 -0.39141,-0.0122 -0.26616,-0.0278 z m -1.04813,-0.28421 c -0.0878,-0.11191 -0.0853,-0.1144 0.0266,-0.0266 0.0679,0.0533 0.12348,0.10882 0.12348,0.12347 0,0.0581 -0.0579,0.0207 -0.15011,-0.0968 z m 14.31414,-0.4877 c 0.0485,-0.0196 0.12788,-0.0196 0.17639,0 0.0485,0.0196 0.009,0.0356 -0.0882,0.0356 -0.097,0 -0.1367,-0.016 -0.0882,-0.0356 z m -10.3893,-0.16494 c 0.0702,-0.0776 0.14358,-0.14111 0.16298,-0.14111 0.0194,0 -0.0222,0.0635 -0.0924,0.14111 -0.0702,0.0776 -0.14358,0.14111 -0.16298,0.14111 -0.0194,0 0.0222,-0.0635 0.0924,-0.14111 z m 7.49652,0.0913 c 0.0873,-0.0168 0.23019,-0.0168 0.3175,0 0.0873,0.0168 0.0159,0.0306 -0.15875,0.0306 -0.17462,0 -0.24606,-0.0138 -0.15875,-0.0306 z m -21.02114,-0.35119 c 0.0509,-0.0204 0.11179,-0.0179 0.13523,0.006 0.0234,0.0234 -0.0182,0.0401 -0.0926,0.0371 -0.0822,-0.003 -0.0989,-0.0201 -0.0426,-0.0426 z m 7.15048,-0.44569 c 0,-0.097 0.016,-0.1367 0.0356,-0.0882 0.0196,0.0485 0.0196,0.12788 0,0.17639 -0.0196,0.0485 -0.0356,0.009 -0.0356,-0.0882 z m 11.54674,-1.3182 c 0.0509,-0.0204 0.11179,-0.0179 0.13523,0.006 0.0234,0.0234 -0.0182,0.0401 -0.0926,0.0371 -0.0822,-0.003 -0.0989,-0.0201 -0.0426,-0.0426 z m 3.10004,-0.0691 c 0.0485,-0.0196 0.12788,-0.0196 0.17639,0 0.0485,0.0196 0.009,0.0356 -0.0882,0.0356 -0.097,0 -0.13671,-0.016 -0.0882,-0.0356 z m 1.34055,-0.0705 c 0.0485,-0.0196 0.12788,-0.0196 0.17639,0 0.0485,0.0196 0.009,0.0356 -0.0882,0.0356 -0.097,0 -0.1367,-0.016 -0.0882,-0.0356 z m 1.41111,-0.0706 c 0.0485,-0.0196 0.12788,-0.0196 0.17639,0 0.0485,0.0196 0.009,0.0356 -0.0882,0.0356 -0.097,0 -0.1367,-0.016 -0.0882,-0.0356 z m 1.41111,-0.0706 c 0.0485,-0.0196 0.12788,-0.0196 0.17639,0 0.0485,0.0196 0.009,0.0356 -0.0882,0.0356 -0.097,0 -0.1367,-0.016 -0.0882,-0.0356 z m 1.41111,-0.0706 c 0.0485,-0.0196 0.12789,-0.0196 0.17639,0 0.0485,0.0196 0.009,0.0356 -0.0882,0.0356 -0.097,0 -0.1367,-0.016 -0.0882,-0.0356 z m 1.41112,-0.0705 c 0.0485,-0.0196 0.12788,-0.0196 0.17638,0 0.0485,0.0196 0.009,0.0356 -0.0882,0.0356 -0.097,0 -0.1367,-0.016 -0.0882,-0.0356 z m -22.03768,-3.21647 -0.13441,-0.15875 0.15875,0.1344 c 0.14919,0.12632 0.19087,0.1831 0.13441,0.1831 -0.0134,0 -0.0848,-0.0714 -0.15875,-0.15875 z m -3.3257,-2.57126 c 0.0687,-0.0179 0.1639,-0.0167 0.21166,0.003 0.0478,0.0193 -0.008,0.034 -0.12481,0.0325 -0.11642,-0.001 -0.1555,-0.0172 -0.0868,-0.0351 z m 43.09046,-0.40971 c 0.0911,-0.097 0.18159,-0.17639 0.20099,-0.17639 0.0194,0 -0.0393,0.0794 -0.13043,0.17639 -0.0911,0.097 -0.18159,0.17638 -0.20099,0.17638 -0.0194,0 0.0393,-0.0794 0.13043,-0.17638 z m -26.035,-5.0008 c 0,-0.0147 0.0556,-0.0702 0.12347,-0.12348 0.11191,-0.0878 0.1144,-0.0853 0.0266,0.0266 -0.0922,0.11753 -0.15011,0.15491 -0.15011,0.0968 z m 0.84667,-0.84667 c 0,-0.0146 0.0556,-0.0702 0.12347,-0.12347 0.1119,-0.0878 0.1144,-0.0853 0.0266,0.0266 -0.0922,0.11752 -0.15011,0.1549 -0.15011,0.0968 z m 13.59958,-5.17065 c 0.0485,-0.0196 0.12788,-0.0196 0.17639,0 0.0485,0.0196 0.009,0.0356 -0.0882,0.0356 -0.097,0 -0.13671,-0.016 -0.0882,-0.0356 z m 1.19944,-0.0705 c 0.0485,-0.0196 0.12788,-0.0196 0.17639,0 0.0485,0.0196 0.009,0.0356 -0.0882,0.0356 -0.097,0 -0.1367,-0.016 -0.0882,-0.0356 z m 1.48167,-0.0706 c 0.0485,-0.0196 0.12788,-0.0196 0.17639,0 0.0485,0.0196 0.009,0.0356 -0.0882,0.0356 -0.097,0 -0.1367,-0.016 -0.0882,-0.0356 z m 3.39108,-0.001 c 0.0509,-0.0204 0.11179,-0.0179 0.13523,0.006 0.0234,0.0234 -0.0182,0.0401 -0.0926,0.0371 -0.0822,-0.003 -0.0989,-0.0201 -0.0426,-0.0426 z"
       id="path855" />
    <path
       style="fill:#2f2f2f;stroke-width:0.0705556"
       d="m 151.47828,193.30627 c 0.003,-0.0822 0.0201,-0.0989 0.0426,-0.0426 0.0204,0.0509 0.0179,0.11179 -0.006,0.13524 -0.0234,0.0234 -0.0401,-0.0182 -0.0371,-0.0926 z m 0.0881,-3.09856 c 2.9e-4,-0.27164 0.0131,-0.37412 0.0283,-0.22773 0.0153,0.14638 0.015,0.36863 -5.6e-4,0.49388 -0.0156,0.12526 -0.0281,0.006 -0.0278,-0.26615 z m -0.009,-3.175 c 0.001,-0.11642 0.0173,-0.1555 0.0351,-0.0868 0.0179,0.0686 0.0167,0.1639 -0.003,0.21167 -0.0193,0.0478 -0.034,-0.008 -0.0325,-0.12482 z m -0.0787,-1.27588 c 0.003,-0.0822 0.0201,-0.0989 0.0426,-0.0426 0.0204,0.0509 0.0179,0.11179 -0.006,0.13523 -0.0234,0.0234 -0.0401,-0.0182 -0.0371,-0.0926 z m -8.0151,-16.41593 -0.63353,-0.65264 0.65264,0.63353 c 0.60616,0.58841 0.68476,0.67175 0.63353,0.67175 -0.0105,0 -0.3042,-0.29369 -0.65264,-0.65264 z m -57.360596,-0.75847 c 0.07024,-0.0776 0.143579,-0.14111 0.162982,-0.14111 0.0194,0 -0.02219,0.0635 -0.09243,0.14111 -0.07024,0.0776 -0.143579,0.14111 -0.162982,0.14111 -0.0194,0 0.02219,-0.0635 0.09243,-0.14111 z m 33.002356,-5.90475 c 0.0679,-0.0178 0.17904,-0.0178 0.24695,0 0.0679,0.0177 0.0123,0.0323 -0.12348,0.0323 -0.13581,0 -0.19138,-0.0145 -0.12347,-0.0323 z m 7.62135,-0.42359 c 0.0686,-0.0179 0.16389,-0.0167 0.21166,0.003 0.0478,0.0193 -0.008,0.034 -0.12481,0.0325 -0.11642,-0.001 -0.1555,-0.0172 -0.0868,-0.0351 z m -26.34944,-0.35208 c 0.0509,-0.0204 0.11179,-0.0179 0.13524,0.006 0.0234,0.0234 -0.0182,0.0401 -0.0926,0.0371 -0.0822,-0.003 -0.0989,-0.0201 -0.0426,-0.0426 z m 16.45268,0.0216 c 0,-0.0147 0.0556,-0.0702 0.12347,-0.12347 0.1119,-0.0878 0.1144,-0.0853 0.0266,0.0266 -0.0922,0.11753 -0.15011,0.1549 -0.15011,0.0968 z m -6.5561,-0.79063 c 0.003,-0.0822 0.0201,-0.0989 0.0426,-0.0426 0.0204,0.0509 0.0179,0.11179 -0.006,0.13523 -0.0234,0.0234 -0.0401,-0.0182 -0.0371,-0.0926 z m 10.49398,-0.99482 c 0.0509,-0.0204 0.11178,-0.0179 0.13523,0.006 0.0234,0.0234 -0.0182,0.0401 -0.0926,0.0371 -0.0822,-0.003 -0.0989,-0.0201 -0.0426,-0.0426 z m 0.84667,-0.0706 c 0.0509,-0.0204 0.11178,-0.0179 0.13523,0.006 0.0234,0.0234 -0.0182,0.0401 -0.0926,0.0371 -0.0822,-0.003 -0.0989,-0.0201 -0.0426,-0.0426 z m 2.67796,-0.0735 c 0.12681,-0.0157 0.31731,-0.0154 0.42333,7.2e-4 0.10602,0.0161 0.002,0.029 -0.23057,0.0285 -0.23283,-4.2e-4 -0.31957,-0.0136 -0.19276,-0.0293 z m 1.69207,-0.0661 c 0.0485,-0.0196 0.12788,-0.0196 0.17639,0 0.0485,0.0196 0.009,0.0356 -0.0882,0.0356 -0.097,0 -0.1367,-0.016 -0.0882,-0.0356 z m 1.41111,-0.0706 c 0.0485,-0.0196 0.12788,-0.0196 0.17639,0 0.0485,0.0196 0.009,0.0356 -0.0882,0.0356 -0.097,0 -0.1367,-0.016 -0.0882,-0.0356 z m 1.41111,-0.0706 c 0.0485,-0.0196 0.12788,-0.0196 0.17639,0 0.0485,0.0196 0.009,0.0356 -0.0882,0.0356 -0.097,0 -0.1367,-0.016 -0.0882,-0.0356 z m 1.41111,-0.0706 c 0.0485,-0.0196 0.12788,-0.0196 0.17639,0 0.0485,0.0196 0.009,0.0356 -0.0882,0.0356 -0.097,0 -0.1367,-0.016 -0.0882,-0.0356 z m 1.41111,-0.0705 c 0.0485,-0.0196 0.12789,-0.0196 0.17639,0 0.0485,0.0196 0.009,0.0356 -0.0882,0.0356 -0.097,0 -0.1367,-0.016 -0.0882,-0.0356 z m 2.54441,-0.21313 c 0.0509,-0.0204 0.11179,-0.0179 0.13523,0.006 0.0234,0.0234 -0.0182,0.0401 -0.0926,0.0371 -0.0822,-0.003 -0.0989,-0.0201 -0.0426,-0.0426 z m -25.96021,-1.62749 c -0.0878,-0.11191 -0.0853,-0.1144 0.0266,-0.0266 0.0679,0.0533 0.12347,0.10882 0.12347,0.12347 0,0.0581 -0.0579,0.0207 -0.15011,-0.0968 z m 1.37813,-1.65806 -0.13441,-0.15875 0.15875,0.13441 c 0.14919,0.12631 0.19087,0.18309 0.13441,0.18309 -0.0134,0 -0.0848,-0.0714 -0.15875,-0.15875 z m 14.64698,-8.34319 c 0.0911,-0.097 0.18158,-0.17639 0.20099,-0.17639 0.0194,0 -0.0393,0.0794 -0.13044,0.17639 -0.0911,0.097 -0.18158,0.17639 -0.20098,0.17639 -0.0194,0 0.0393,-0.0794 0.13043,-0.17639 z m 30.90039,-1.95792 c 0.173,-0.18433 0.32381,-0.33514 0.33513,-0.33514 0.053,0 -0.003,0.0633 -0.31455,0.35573 l -0.33514,0.31455 z m -16.80251,-3.41722 c 0.0509,-0.0204 0.11179,-0.0179 0.13523,0.006 0.0234,0.0234 -0.0182,0.0401 -0.0926,0.0371 -0.0822,-0.003 -0.0989,-0.0201 -0.0426,-0.0426 z m 1.19503,-0.0691 c 0.0485,-0.0196 0.12789,-0.0196 0.17639,0 0.0485,0.0196 0.009,0.0356 -0.0882,0.0356 -0.097,0 -0.1367,-0.016 -0.0882,-0.0356 z m 5.4372,-0.001 c 0.0509,-0.0204 0.11178,-0.0179 0.13523,0.006 0.0234,0.0234 -0.0182,0.0401 -0.0926,0.0371 -0.0822,-0.003 -0.0989,-0.0201 -0.0426,-0.0426 z m -3.9189,-0.0712 c 0.0686,-0.0179 0.16389,-0.0167 0.21166,0.003 0.0478,0.0193 -0.008,0.034 -0.12481,0.0325 -0.11642,-0.001 -0.1555,-0.0172 -0.0868,-0.0351 z m 2.67976,2.8e-4 c 0.0679,-0.0177 0.17904,-0.0177 0.24695,0 0.0679,0.0178 0.0123,0.0323 -0.12347,0.0323 -0.13582,0 -0.19139,-0.0145 -0.12348,-0.0323 z"
       id="path853" />
    <path
       style="fill:#171717;stroke-width:0.0705556"
       d="m 87.672845,209.88126 c 0.04851,-0.0196 0.127882,-0.0196 0.176389,0 0.04851,0.0196 0.0088,0.0356 -0.08819,0.0356 -0.09701,0 -0.136702,-0.016 -0.08819,-0.0356 z m -1.004917,-0.23468 c -0.02472,-0.04 0.0036,-0.0518 0.06639,-0.0277 0.122231,0.0469 0.144595,0.0975 0.04311,0.0975 -0.03652,0 -0.08579,-0.0314 -0.109498,-0.0697 z m -0.362601,-0.35503 c -0.103243,-0.15601 -0.175131,-0.29554 -0.159751,-0.31007 0.01538,-0.0145 0.114055,0.11313 0.219277,0.28367 0.239639,0.38838 0.193553,0.40883 -0.05953,0.0264 z m 60.762193,-0.79535 c 0.0265,-0.0696 0.066,-0.10874 0.0877,-0.087 0.0217,0.0217 5e-5,0.0787 -0.0482,0.12652 -0.0697,0.0692 -0.0778,0.0611 -0.0395,-0.0395 z m -61.059229,-0.26155 c 0,-0.097 0.01601,-0.1367 0.03559,-0.0882 0.01957,0.0485 0.01957,0.12788 0,0.17639 -0.01957,0.0485 -0.03559,0.009 -0.03559,-0.0882 z m 61.656579,-1.02305 c 0,-0.0388 0.0308,-0.11818 0.0684,-0.17639 0.0376,-0.0582 0.0684,-0.0741 0.0684,-0.0353 0,0.0388 -0.0308,0.11818 -0.0684,0.17639 -0.0376,0.0582 -0.0684,0.0741 -0.0684,0.0353 z m 3.90449,-18.16806 c 0,-0.40746 0.0117,-0.57414 0.0259,-0.37041 0.0143,0.20372 0.0143,0.5371 0,0.74083 -0.0142,0.20373 -0.0259,0.037 -0.0259,-0.37042 z m -0.0123,-1.65805 c 0.001,-0.11642 0.0173,-0.1555 0.0351,-0.0868 0.0179,0.0686 0.0167,0.16389 -0.003,0.21166 -0.0193,0.0478 -0.034,-0.008 -0.0325,-0.12481 z m -6.72558,-16.52764 c -0.0878,-0.11191 -0.0853,-0.11441 0.0266,-0.0266 0.0679,0.0533 0.12347,0.10882 0.12347,0.12347 0,0.0581 -0.0579,0.0207 -0.15011,-0.0968 z m -58.058218,-2.8665 c 0,-0.0147 0.05556,-0.0702 0.123472,-0.12348 0.111905,-0.0878 0.114401,-0.0853 0.02664,0.0266 -0.09217,0.11753 -0.150111,0.15491 -0.150111,0.0968 z m 21.819308,-4.96279 c 0.10671,-0.0162 0.28134,-0.0162 0.38805,0 0.10672,0.0162 0.0194,0.0294 -0.19403,0.0294 -0.21343,0 -0.30074,-0.0132 -0.19402,-0.0294 z m 10.90524,-0.35044 c 0.0509,-0.0204 0.11179,-0.0179 0.13523,0.006 0.0234,0.0234 -0.0182,0.0401 -0.0926,0.0371 -0.0822,-0.003 -0.0989,-0.0201 -0.0426,-0.0426 z m -0.913,-0.14583 c -0.0878,-0.11191 -0.0853,-0.1144 0.0266,-0.0266 0.0679,0.0533 0.12347,0.10882 0.12347,0.12347 0,0.0581 -0.0579,0.0207 -0.15011,-0.0968 z m -0.11574,-0.44097 c 0,-0.13582 0.0145,-0.19138 0.0323,-0.12347 0.0178,0.0679 0.0178,0.17903 0,0.24694 -0.0177,0.0679 -0.0323,0.0123 -0.0323,-0.12347 z m 3.91711,0.16494 c 0.0485,-0.0196 0.12788,-0.0196 0.17639,0 0.0485,0.0196 0.009,0.0356 -0.0882,0.0356 -0.097,0 -0.13671,-0.016 -0.0882,-0.0356 z m 3.81,-0.003 c 0.0873,-0.0168 0.23018,-0.0168 0.3175,0 0.0873,0.0168 0.0159,0.0306 -0.15875,0.0306 -0.17463,0 -0.24607,-0.0138 -0.15875,-0.0306 z m -25.60726,-0.35115 c 0.0509,-0.0204 0.11179,-0.0179 0.13523,0.006 0.0235,0.0234 -0.0182,0.0401 -0.0926,0.0371 -0.0822,-0.003 -0.0989,-0.0201 -0.0426,-0.0426 z m 16.45267,-0.19011 c 0,-0.0147 0.0556,-0.0702 0.12348,-0.12347 0.1119,-0.0878 0.1144,-0.0853 0.0266,0.0266 -0.0922,0.11753 -0.15012,0.1549 -0.15012,0.0968 z m 4.36122,-1.64434 c 0.0509,-0.0204 0.11179,-0.0179 0.13523,0.006 0.0234,0.0234 -0.0182,0.0401 -0.0926,0.0371 -0.0822,-0.003 -0.0989,-0.0201 -0.0426,-0.0426 z m 2.0417,-0.0734 c 0.12612,-0.0156 0.33249,-0.0156 0.45861,0 0.12612,0.0156 0.0229,0.0285 -0.2293,0.0285 -0.25224,0 -0.35543,-0.0128 -0.22931,-0.0285 z m 2.22384,-0.0684 c 0.0686,-0.0179 0.1639,-0.0167 0.21167,0.003 0.0478,0.0193 -0.008,0.034 -0.12482,0.0325 -0.11641,-0.001 -0.1555,-0.0172 -0.0868,-0.0351 z m 1.41111,-0.0705 c 0.0687,-0.0179 0.1639,-0.0167 0.21167,0.003 0.0478,0.0193 -0.008,0.034 -0.12482,0.0325 -0.11641,-0.001 -0.1555,-0.0173 -0.0868,-0.0351 z m 1.41111,-0.0706 c 0.0687,-0.0179 0.1639,-0.0167 0.21167,0.003 0.0478,0.0193 -0.008,0.034 -0.12482,0.0325 -0.11641,-0.001 -0.15549,-0.0173 -0.0868,-0.0352 z m 1.41112,-0.0706 c 0.0686,-0.0179 0.16389,-0.0167 0.21166,0.003 0.0478,0.0193 -0.008,0.034 -0.12481,0.0325 -0.11642,-0.001 -0.1555,-0.0173 -0.0868,-0.0352 z m 1.41111,-0.0705 c 0.0686,-0.0179 0.16389,-0.0167 0.21166,0.003 0.0478,0.0193 -0.008,0.034 -0.12481,0.0325 -0.11642,-0.001 -0.1555,-0.0173 -0.0868,-0.0351 z m 1.23779,-0.0699 c 0.0509,-0.0204 0.11178,-0.0179 0.13523,0.006 0.0234,0.0235 -0.0182,0.0401 -0.0926,0.0371 -0.0822,-0.003 -0.0989,-0.0201 -0.0426,-0.0426 z m 2.18722,-0.21166 c 0.0509,-0.0204 0.11178,-0.0179 0.13523,0.006 0.0234,0.0234 -0.0182,0.0401 -0.0926,0.0371 -0.0822,-0.003 -0.0989,-0.0201 -0.0426,-0.0426 z m 0.70555,-0.0706 c 0.0509,-0.0204 0.11179,-0.0179 0.13523,0.006 0.0234,0.0234 -0.0182,0.0401 -0.0926,0.0371 -0.0822,-0.003 -0.0989,-0.0201 -0.0426,-0.0426 z m 0.70556,-0.0706 c 0.0509,-0.0204 0.11179,-0.0179 0.13523,0.006 0.0234,0.0234 -0.0182,0.0401 -0.0926,0.0371 -0.0822,-0.003 -0.0989,-0.0201 -0.0426,-0.0426 z m -27.68653,-1.16889 -0.13441,-0.15875 0.15875,0.13441 c 0.0873,0.0739 0.15875,0.14536 0.15875,0.15875 0,0.0565 -0.0568,0.0148 -0.18309,-0.13441 z m -2.92669,-2.15194 -0.17105,-0.19403 0.19403,0.17105 c 0.18135,0.15987 0.22638,0.21701 0.17105,0.21701 -0.0126,0 -0.1,-0.0873 -0.19403,-0.19403 z m 3.24189,-0.42333 c -0.0878,-0.11191 -0.0853,-0.11441 0.0266,-0.0266 0.11753,0.0922 0.15491,0.15012 0.0968,0.15012 -0.0147,0 -0.0702,-0.0556 -0.12347,-0.12348 z m -2.61478,-1.61806 c 0.0509,-0.0204 0.11179,-0.0179 0.13523,0.006 0.0234,0.0234 -0.0182,0.0401 -0.0926,0.0371 -0.0822,-0.003 -0.0989,-0.0201 -0.0426,-0.0426 z m 0.84667,0 c 0.0509,-0.0204 0.11178,-0.0179 0.13523,0.006 0.0234,0.0234 -0.0182,0.0401 -0.0926,0.0371 -0.0822,-0.003 -0.0989,-0.0201 -0.0426,-0.0426 z m 43.33434,-1.24845 c 0,-0.0146 0.0556,-0.0702 0.12347,-0.12347 0.1119,-0.0878 0.1144,-0.0853 0.0266,0.0266 -0.0922,0.11753 -0.15011,0.1549 -0.15011,0.0968 z m -25.54112,-5.29165 c 0,-0.0146 0.0556,-0.0702 0.12348,-0.12348 0.1119,-0.0878 0.1144,-0.0853 0.0266,0.0267 -0.0922,0.11752 -0.15011,0.1549 -0.15011,0.0968 z m 12.54125,-4.81787 c 0.0485,-0.0196 0.12788,-0.0196 0.17639,0 0.0485,0.0196 0.009,0.0356 -0.0882,0.0356 -0.097,0 -0.1367,-0.016 -0.0882,-0.0356 z m 1.19945,-0.0706 c 0.0485,-0.0196 0.12788,-0.0196 0.17639,0 0.0485,0.0196 0.009,0.0356 -0.0882,0.0356 -0.097,0 -0.1367,-0.016 -0.0882,-0.0356 z m 1.30662,-0.0727 c 0.0686,-0.0179 0.1639,-0.0167 0.21166,0.003 0.0478,0.0193 -0.008,0.034 -0.12481,0.0325 -0.11642,-0.001 -0.1555,-0.0172 -0.0868,-0.0351 z m 4.83171,0.002 c 0.0485,-0.0196 0.12789,-0.0196 0.17639,0 0.0485,0.0196 0.009,0.0356 -0.0882,0.0356 -0.097,0 -0.1367,-0.016 -0.0882,-0.0356 z m -3.27949,-0.0727 c 0.0687,-0.0179 0.1639,-0.0167 0.21167,0.003 0.0478,0.0193 -0.008,0.034 -0.12481,0.0325 -0.11642,-0.001 -0.15551,-0.0173 -0.0869,-0.0351 z m 1.37449,-0.003 c 0.16493,-0.0148 0.4348,-0.0148 0.59973,0 0.16492,0.0148 0.03,0.027 -0.29986,0.027 -0.32985,0 -0.46479,-0.0122 -0.29987,-0.027 z"
       id="path851" />
    <path
       style="fill:#ffffff;fill-opacity:1;stroke-width:0.0705556"
       d="m 87.503549,209.85354 c -0.897987,-0.11705 -1.299175,-0.52189 -1.432687,-1.44569 -0.04614,-0.31927 -0.0714,-7.33476 -0.07231,-20.08189 l -0.0014,-19.59119 0.652639,-0.59918 c 1.3389,-1.22922 2.084644,-1.76552 3.875798,-2.78729 3.096381,-1.76633 7.238974,-3.19803 9.862691,-3.4086 0.48386,-0.0388 1.65861,-0.0601 2.61055,-0.0472 l 1.73082,0.0234 0.72037,0.37206 c 0.3962,0.20463 0.95628,0.43239 1.24462,0.50614 0.78451,0.20064 2.10002,0.31022 2.6564,0.22128 0.40277,-0.0644 0.49184,-0.10869 0.7315,-0.3638 l 0.2729,-0.29047 -0.0299,-0.85813 c -0.0276,-0.79237 -0.0476,-0.89483 -0.26018,-1.33715 -0.40286,-0.83806 -1.52867,-2.20046 -2.29424,-2.77636 -0.23699,-0.17828 -0.6214,-0.41424 -0.85423,-0.52435 -0.50504,-0.23884 -1.29761,-0.876 -1.58756,-1.27626 -0.41997,-0.57976 -0.31733,-1.11976 0.28228,-1.48513 0.29043,-0.17697 0.38205,-0.19425 1.07456,-0.20273 0.70781,-0.009 0.77869,0.003 1.08938,0.18549 0.4476,0.26231 0.62323,0.46618 0.72994,0.84731 0.0965,0.34476 0.22002,0.4916 0.91331,1.08595 0.60319,0.5171 1.66632,1.96053 2.11409,2.87033 0.5321,1.08114 0.62196,1.34625 0.74193,2.18898 0.1411,0.99104 0.27734,1.48494 0.46463,1.6843 0.19484,0.20741 0.63576,0.3158 1.28187,0.31513 1.49238,-0.002 2.30165,-0.41689 3.3774,-1.73338 0.72188,-0.88343 0.92511,-1.31878 1.67922,-3.59704 0.67875,-2.0506 1.15279,-3.20471 2.39191,-5.82344 0.25789,-0.54502 0.74999,-1.37896 1.27281,-2.15697 0.69261,-1.03069 0.98375,-1.39452 1.55335,-1.94123 0.9346,-0.89706 1.54147,-1.3775 2.30588,-1.8255 0.34925,-0.20469 0.85725,-0.51972 1.12888,-0.70007 0.27164,-0.18036 0.66852,-0.40096 0.88195,-0.49024 0.21343,-0.0893 0.88018,-0.37923 1.48167,-0.64434 2.55575,-1.12648 5.07746,-1.5597 10.61861,-1.82424 1.83581,-0.0876 4.21072,0.0116 5.57389,0.23294 3.44854,0.55992 4.57256,0.80121 6.14853,1.31988 0.93459,0.30758 3.06966,1.25982 3.11243,1.38815 0.0147,0.0439 -0.15898,0.27982 -0.38582,0.5242 -0.66227,0.71342 -1.45964,1.74055 -1.82382,2.34931 -0.85765,1.43368 -2.22334,3.5163 -2.68349,4.09222 -0.84796,1.06131 -1.32331,1.53712 -2.5272,2.52963 -1.83576,1.51344 -1.97391,1.59914 -4.41591,2.73939 -1.37882,0.64382 -1.60367,0.72635 -2.46944,0.90642 -0.52387,0.10895 -1.20651,0.23413 -1.51695,0.27818 -0.31045,0.044 -1.15182,0.17293 -1.86972,0.28639 -2.81797,0.44537 -7.6239,0.77905 -15.16945,1.05322 -2.36294,0.0859 -2.75383,0.17368 -3.42194,0.76881 -0.46362,0.41298 -0.73892,0.8203 -0.77995,1.15399 -0.0901,0.73312 0.28787,0.86661 1.78209,0.62931 2.21561,-0.35188 2.34643,-0.36103 4.71286,-0.32985 2.23091,0.0294 2.65486,0.0639 4.48028,0.36462 1.57041,0.25871 4.20775,1.02743 5.715,1.66577 2.66304,1.12785 5.29292,2.55892 6.73455,3.66467 1.06384,0.81598 2.66444,2.48312 3.71421,3.86862 1.87266,2.47156 3.90795,6.4481 4.80169,9.38153 0.3373,1.1071 0.89032,3.25075 0.9744,3.77708 0.14338,0.89751 0.18851,2.78352 0.13759,5.75028 -0.0588,3.42427 -0.1123,3.83786 -1.04125,8.04334 -0.34612,1.56688 -1.60238,5.41363 -2.23104,6.83151 -0.17578,0.39645 -0.31959,0.78844 -0.31959,0.87109 0,0.0827 -0.0758,0.31219 -0.16849,0.51009 -0.19224,0.41055 -0.76465,1.66663 -1.10444,2.42356 l -0.22963,0.51153 -29.25248,-0.009 c -16.08885,-0.005 -29.447711,-0.0344 -29.686345,-0.0655 z"
       id="path849" />
  </g>
</svg>
